<svg version="1.1" id="Layer_1" xmlns="http://www.w3.org/2000/svg" xmlns:xlink="http://www.w3.org/1999/xlink" x="0px" y="0px"
   width="100%" viewBox="280 225 466 560" enable-background="new 280 225 466 560" xml:space="preserve">
<path fill="#FFFFFF" opacity="1.000000" stroke="none" 
  d="
M295.237305,594.781494 
  C285.572357,588.923584 283.307312,580.839294 283.377045,569.916565 
  C283.893036,489.091034 283.686920,408.260590 283.558197,327.431976 
  C283.551239,323.071808 284.964417,321.093475 289.012756,319.448425 
  C353.191559,293.368805 417.295074,267.103790 481.415802,240.881195 
  C490.355408,237.225281 499.356628,233.710236 508.203156,229.841446 
  C511.567047,228.370346 514.390320,228.596695 517.704651,229.960251 
  C581.155334,256.064148 644.642456,282.079315 708.134033,308.083557 
  C717.996826,312.123047 727.883606,316.109619 737.832764,319.929291 
  C741.049500,321.164246 742.443237,322.848206 742.438599,326.510315 
  C742.331543,411.172119 742.333862,495.834106 742.401733,580.495972 
  C742.404297,583.661011 741.265015,585.791077 738.969055,587.777344 
  C691.491333,628.851196 644.031921,669.946289 596.604675,711.078552 
  C570.564209,733.662659 544.593201,756.326965 518.582275,778.945190 
  C513.091736,783.719666 513.058472,783.718384 507.689117,779.048035 
  C465.079041,741.985474 422.508636,704.877258 379.858215,667.861145 
  C351.800293,643.509766 323.629730,619.288147 295.237305,594.781494 
M393.998627,651.484131 
  C432.453186,684.925903 470.932526,718.339294 509.310944,751.868225 
  C512.098267,754.303406 513.657166,754.561035 516.659119,751.925781 
  C549.072754,723.470337 581.633118,695.181702 614.202454,666.904053 
  C648.408325,637.205383 682.641296,607.537598 716.950745,577.958862 
  C719.876587,575.436462 721.088379,572.790955 721.059753,568.947754 
  C720.914368,549.453796 721.006531,529.958130 721.005127,510.463104 
  C721.001099,454.477142 720.946655,398.491119 721.071228,342.505432 
  C721.081177,338.015808 719.800293,335.644440 715.417175,334.019501 
  C705.118591,330.201630 695.051758,325.760590 684.878235,321.603180 
  C629.236877,298.865204 573.579041,276.167419 517.976196,253.335617 
  C514.287720,251.821030 511.147766,251.922806 507.546021,253.403610 
  C485.835388,262.329712 464.039185,271.047302 442.312073,279.933624 
  C399.318146,297.517975 356.370026,315.214508 313.356750,332.751282 
  C304.048431,336.546326 305.014160,334.991241 305.007843,345.253052 
  C304.962067,419.400940 305.028778,493.548950 304.866364,567.696472 
  C304.854919,572.932861 306.734802,576.352295 310.540161,579.610718 
  C338.247589,603.335205 365.836792,627.197754 393.998627,651.484131 
z"/>
<path fill="#FFFFFF" opacity="1.000000" stroke="none" 
  d="
M329.710571,479.999939 
  C329.715424,440.338348 329.828369,401.176147 329.596069,362.015961 
  C329.565186,356.809601 331.144958,354.259491 336.007477,352.528748 
  C346.454773,348.810120 346.585632,348.402313 353.444336,356.791077 
  C372.738190,380.389099 391.836426,404.147034 411.018433,427.836548 
  C415.506836,433.379730 415.697235,433.374817 419.792267,427.577606 
  C448.526978,386.898956 477.253967,346.214905 505.993073,305.539368 
  C506.920471,304.226776 507.613831,302.669098 509.835022,301.535278 
  C509.835022,439.248810 509.835022,576.457092 509.835022,713.672974 
  C507.432495,713.995728 506.515869,712.340332 505.336304,711.320679 
  C493.869629,701.408203 482.527863,691.349365 470.962128,681.554626 
  C467.989868,679.037537 467.679901,676.150635 467.682465,672.699768 
  C467.740387,595.209839 467.746887,517.719971 467.717773,440.230072 
  C467.716797,437.647034 468.370392,434.920593 466.254700,431.436493 
  C449.928650,454.178833 433.926422,476.470032 417.437073,499.439850 
  C401.477600,480.847717 387.889160,461.211395 372.105255,443.427338 
  C371.625854,443.591583 371.146454,443.755798 370.667053,443.920044 
  C370.667053,493.732300 370.667053,543.544556 370.667053,592.894287 
  C368.460175,594.117065 367.671143,593.081299 366.821564,592.345093 
  C355.744904,582.746460 344.739838,573.063660 333.563324,563.582947 
  C330.762299,561.206970 329.647919,558.658691 329.666412,554.988647 
  C329.791290,530.159668 329.719177,505.329651 329.710571,479.999939 
z"/>
<path fill="#FFFFFF" opacity="1.000000" stroke="none" 
  d="
M600.637085,326.290344 
  C630.689758,336.857239 660.374207,347.282745 690.067383,357.683472 
  C692.216248,358.436157 694.087524,359.238556 694.077942,362.021240 
  C694.033325,375.015198 694.048889,388.009369 694.011414,401.003357 
  C694.010071,401.463135 693.676636,401.921936 693.520569,402.323090 
  C692.077515,403.238312 690.881897,402.374481 689.675964,401.935425 
  C653.071594,388.606445 616.476379,375.252106 579.868774,361.931885 
  C572.631165,359.298370 572.263794,359.566284 572.254272,367.248138 
  C572.228577,387.910370 572.230164,408.572662 572.252197,429.234924 
  C572.258728,435.299866 572.666748,435.688416 578.839661,435.693573 
  C606.167175,435.716400 633.495422,435.815796 660.821655,435.633789 
  C665.704834,435.601257 667.648804,436.830994 667.435608,442.056885 
  C667.041870,451.705505 667.086914,461.389465 667.415649,471.042786 
  C667.576904,475.778900 665.768616,477.034576 661.352478,477.015900 
  C634.358948,476.901733 607.364563,476.984314 580.370422,476.998657 
  C572.256531,477.002991 572.234863,476.999115 572.233215,485.279175 
  C572.221802,543.100159 572.213379,600.921204 572.234985,658.742188 
  C572.236084,661.622375 572.165649,664.151367 569.609680,666.341125 
  C557.854980,676.411377 546.275452,686.685974 534.604126,696.854004 
  C533.634888,697.698364 532.449646,698.294739 530.505005,699.570251 
  C530.505005,566.532410 530.505005,434.302521 530.505005,301.411713 
  C553.961365,309.726685 577.116150,317.934753 600.637085,326.290344 
z"/>
</svg>